# AST/ASF file generated using VICON BodyLanguage
# -----------------------------------------------
:version 1.10
:name VICON
:units
  mass 1.0
  length 0.45
  angle deg
:documentation
   .ast/.asf automatically generated from VICON data using
   VICON BodyBuilder and BodyLanguage model FoxedUp or BRILLIANT.MOD
:root
   order TX TY TZ RX RY RZ
   axis XYZ
   position 0 0 0  
   orientation 0 -0 0 
:bonedata
  begin
     id 1 
     name lhipjoint
     direction 0.432694 -0.693742 0.575759 
     length 2.19277 
     axis 0 -0 0  XYZ
  end
  begin
     id 2 
     name lfemur
     direction 0.34202 -0.939693 0  
     length 6.69022  
     axis 0 -0 20  XYZ
    dof rx ry rz
    limits (-160.0 20.0)
           (-70.0 70.0)
           (-60.0 70.0)
  end
  begin
     id 3 
     name ltibia
     direction 0.34202 -0.939693 0   
     length 6.50337   
     axis 0 -0 20   XYZ
    dof rx
    limits (-10.0 170.0)
  end
  begin
     id 4 
     name lfoot
     direction 0.158999 -0.435969 0.885805   
     length 2.70564   
     axis -90 -1.13533e-015 20   XYZ
    dof rx rz
    limits (-45.0 90.0)
           (-70.0 20.0)
  end
  begin
     id 5 
     name ltoes
     direction -0.00592919 0.00964381 0.999936   
     length 1.29929   
     axis -90 -1.13533e-015 20   XYZ
    dof rx
    limits (-90.0 20.0)
  end
  begin
     id 6 
     name rhipjoint
     direction -0.414359 -0.700339 0.581234   
     length 2.17212  
     axis 0 -0 0  XYZ 
  end
  begin
     id 7 
     name rfemur
     direction -0.34202 -0.939693 0   
     length 7.17659   
     axis 0 -0 -20   XYZ
    dof rx ry rz
    limits (-160.0 20.0)
           (-70.0 70.0)
           (-70.0 60.0)
  end
  begin
     id 8 
     name rtibia
     direction -0.34202 -0.939693 0   
     length 6.36669   
     axis 0 -0 -20   XYZ
    dof rx
    limits (-10.0 170.0)
 end
 begin
     id 9 
     name rfoot
     direction -0.137064 -0.37658 0.916188   
     length 2.22351  
     axis -90 1.13533e-015 -20   XYZ
    dof rx rz
    limits (-45.0 90.0)
           (-20.0 70.0)
  end
  begin
     id 10 
     name rtoes
     direction -0.000784077 -0.00289101 0.999996   
     length 1.09522   
     axis -90 1.13533e-015 -20   XYZ
    dof rx
    limits (-90.0 20.0)
  end
  begin
     id 11 
     name lowerback
     direction -0.0176242 0.984912 -0.172157   
     length 1.65301   
     axis 0 -0 0   XYZ
    dof rx ry rz
    limits (-20.0 45.0)
           (-30.0 30.0)
           (-30.0 30.0)
  end
  begin
     id 12 
     name upperback
     direction -0.00218128 0.998776 -0.0494072   
     length 1.67776   
     axis 0 -0 0   XYZ
    dof rx ry rz
    limits (-20.0 45.0)
           (-30.0 30.0)
           (-30.0 30.0)
  end
  begin
     id 13 
     name thorax
     direction 0.00544186 0.999658 0.0255711   
     length 1.72293   
     axis 0 -0 0   XYZ
    dof rx ry rz
    limits (-20.0 45.0)
           (-30.0 30.0)
           (-30.0 30.0)
  end
  begin
     id 14 
     name lowerneck
     direction -0.105325 0.983841 0.144785   
     length 2.14226   
     axis 0 -0 0   XYZ
    dof rx ry rz
    limits (-20.0 45.0)
           (-30.0 30.0)
           (-30.0 30.0)
  end
  begin
     id 15 
     name upperneck
     direction 0.0547957 0.988053 -0.144041   
     length 2.17508   
     axis 0 -0 0   XYZ
    dof rx ry rz
    limits (-20.0 45.0)
           (-30.0 30.0)
           (-30.0 30.0)
  end
  begin
     id 16
     name head
     direction 0.0247488 0.997534 -0.0656813  
     length 2.20048  
     axis 0 -0 0   XYZ
    dof rx ry rz
    limits (-20.0 45.0)
           (-30.0 30.0)
           (-30.0 30.0)
  end
  begin
     id 17 
     name lclavicle
     direction 0.820559 0.567247 -0.0701026  
     length 4.09615  
     axis 0 -0 0   XYZ
    dof ry rz
    limits (-20.0 10.0)
           (0.0 20.0)
  end
  begin
     id 18 
     name lhumerus
     direction 0.999977 -0.0067566 -9.96392e-005   
     length 4.59333   
     axis -180 -30 -90   XYZ
    dof rx ry rz
    limits (-60.0 90.0)
           (-90.0 90.0)
           (-90.0 90.0)
  end
  begin
     id 19
     name lradius
     direction 1 -4.48982e-011 -2.53425e-027   
     length 2.81151   
     axis -180 -30 -90   XYZ
    dof rx
    limits (-10.0 170.0)
  end
  begin
     id 20
     name lwrist
     direction 1 -4.48939e-011 -7.39254e-028   
     length 1.40576   
     axis 2.56395e-016 90 90   XYZ
    dof ry
    limits (-180.0 0.0)
 end
  begin
     id 21 
     name lhand
     direction 1 -4.48939e-011 -1.47851e-027   
     length 0.895651   
     axis 9.43423e-016 90 90   XYZ
    dof rx rz
    limits (-90.0 90.0)
           (-45.0 45.0)
  end
  begin
     id 22 
     name lfingers
     direction 1 -4.48978e-011 -2.95702e-027   
     length 0.722097   
     axis 1.88685e-015 90 90   XYZ
    dof rx
    limits (0.0 90.0)
  end
  begin
     id 23
     name lthumb
     direction 0.707107 -6.34931e-011 0.707107   
     length 1.03679   
     axis -90 45 -9.86935e-015   XYZ
    dof rx rz
    limits (-45.0 45.0)
           (-45.0 45.0)
  end
  begin
     id 24 
     name rclavicle
     direction -0.831414 0.553102 -0.0531864   
     length 4.24872  
     axis 0 -0 0   XYZ 
    dof ry rz
    limits (-10.0 20.0)
           (-20.0 0.0)
  end
  begin
     id 25 
     name rhumerus
     direction -0.999916 -0.000939607 0.0129331  
     length 4.74834   
     axis -180 30 90   XYZ
    dof rx ry rz
    limits (-90.0 60.0)
           (-90.0 90.0)
           (-90.0 90.0)
  end
  begin
     id 26 
     name rradius
     direction -1 -4.48956e-011 -1.31752e-027   
     length 2.79907   
     axis -180 30 90   XYZ
    dof rx
    limits (-10.0 170.0)
  end
  begin
     id 27 
     name rwrist
     direction -1 -4.4897e-011 -7.39254e-028   
     length 1.39954   
     axis 2.56395e-016 -90 -90   XYZ
    dof ry
    limits (-180.0 0.0)
  end
  begin
     id 28
     name rhand
     direction -0.999997 -0.00250697 0.000800838   
     length 0.953304   
     axis 9.43423e-016 -90 -90   XYZ
    dof rx rz
    limits (-90.0 90.0)
           (-45.0 45.0)
  end
  begin
     id 29
     name rfingers
     direction -1 -4.48954e-011 -2.95702e-027   
     length 0.763342   
     axis 1.88685e-015 -90 -90   XYZ
    dof rx
    limits (0.0 90.0)
  end
  begin
     id 30
     name rthumb
     direction -0.709701 -0.00217037 0.7045   
     length 1.10115   
     axis -90 -45 9.86935e-015   XYZ
    dof rx rz
    limits (-45.0 45.0)
           (-45.0 45.0)
  end
:hierarchy
  begin
    root lhipjoint rhipjoint lowerback
    lhipjoint lfemur
    lfemur ltibia
    ltibia lfoot
    lfoot ltoes
    rhipjoint rfemur
    rfemur rtibia
    rtibia rfoot
    rfoot rtoes
    lowerback upperback
    upperback thorax
    thorax lowerneck lclavicle rclavicle
    lowerneck upperneck
    upperneck head
    lclavicle lhumerus
    lhumerus lradius
    lradius lwrist
    lwrist lhand lthumb
    lhand lfingers
    rclavicle rhumerus
    rhumerus rradius
    rradius rwrist
    rwrist rhand rthumb
    rhand rfingers
  end

#!OML:ASF G:\ViconDB\ViconDB\414\test\team2\shane.ASF
:FULLY-SPECIFIED
:DEGREES
17
root 3.22402 15.8335 -38.0324 1.25525 -8.09801 -6.95183
lowerback 10.3519 0.353073 5.58244
upperback 2.23394 1.10026 1.04452
thorax -3.38637 0.49787 -2.1969
lowerneck -18.3232 -2.68678 -8.70706
upperneck 28.0821 -3.72821 8.50966
head 12.7169 -1.4813 4.17587
rclavicle 2.60905e-014 5.96354e-015
rhumerus -32.6006 16.9941 -94.3553
rradius 42.7205
rwrist 29.4176
rhand -30.8974 -16.2225
rfingers 7.12502
rthumb -4.18407 -46.1612
lclavicle 2.60905e-014 5.96354e-015
lhumerus -34.3663 -29.3123 100.518
lradius 22.0033
lwrist -16.6347
lhand -36.3804 8.36194
lfingers 7.12502
lthumb -9.47686 38.1288
rfemur -10.0386 -11.6845 21.7018
rtibia 39.3228
rfoot -32.0735 3.2105
rtoes -6.58812
lfemur -2.30177 7.52443 1.57638
ltibia 51.4302
lfoot -21.5077 -24.8394
ltoes -14.2697
18
root 3.23245 15.8424 -38.0238 1.51921 -8.51338 -6.954
lowerback 10.3285 0.278968 5.38083
upperback 2.39659 0.967413 0.937641
thorax -3.21561 0.440468 -2.17661
lowerneck -18.4538 -2.54638 -8.41904
upperneck 28.0722 -3.54015 8.28901
head 12.7084 -1.39386 4.06864
rclavicle -1.71949e-014 -2.78299e-015
rhumerus -32.6648 16.4528 -94.3138
rradius 43.251
rwrist 28.9969
rhand -30.9731 -16.2023
rfingers 7.12502
rthumb -4.25721 -46.1395
lclavicle -1.71949e-014 -2.78299e-015
lhumerus -34.3271 -29.5115 100.308
lradius 21.9471
lwrist -17.2841
lhand -36.4317 8.0672
lfingers 7.12502
lthumb -9.52633 37.8319
rfemur -10.3921 -11.6802 21.7006
rtibia 39.5318
rfoot -32.4327 3.36339
rtoes -7.07838
lfemur -1.37715 6.1969 0.783042
ltibia 50.6688
lfoot -19.7739 -24.2398
ltoes -14.0192
19
root 3.24473 15.8154 -38.0233 1.85978 -8.90396 -7.12659
lowerback 10.3193 0.0846622 5.04265
upperback 2.49657 0.676596 1.14626
thorax -3.13575 0.301985 -1.73225
lowerneck -18.4854 -2.294 -8.62886
upperneck 28.1026 -3.05478 8.128
head 12.6755 -1.22384 4.12147
rclavicle -3.17559e-014 -2.3059e-014
rhumerus -32.8464 16.4233 -94.0412
rradius 43.6261
rwrist 28.4945
rhand -31.335 -16.7089
rfingers 7.12502
rthumb -4.60664 -46.6388
lclavicle -3.17559e-014 -2.3059e-014
lhumerus -34.0223 -28.4143 100.198
lradius 21.8835
lwrist -17.2559
lhand -36.1575 8.35665
lfingers 7.12502
lthumb -9.26174 38.1332
rfemur -10.9493 -11.5216 21.8982
rtibia 39.9266
rfoot -32.8421 3.22601
rtoes -7.97076
lfemur -0.583453 6.41505 0.782688
ltibia 49.6709
lfoot -17.7003 -24.9228
ltoes -13.6273
20
root 3.25347 15.8114 -38.0175 2.09023 -9.23642 -7.21404
lowerback 10.4663 -0.0629243 4.74807
upperback 2.64005 0.454549 1.19684
thorax -3.08534 0.196478 -1.48664
lowerneck -18.5209 -2.12583 -8.616
upperneck 28.0524 -2.7446 7.9162
head 12.6256 -1.11265 4.08351
rclavicle 9.93923e-015 1.94809e-014
rhumerus -33.1179 16.0921 -93.8322
rradius 44.0401
rwrist 28.5793
rhand -31.4002 -16.7214
rfingers 7.12502
rthumb -4.6696 -46.6499
lclavicle 9.93923e-015 1.94809e-014
lhumerus -34.2258 -28.8606 100.4
lradius 22.1066
lwrist -16.7164
lhand -36.3412 8.38948
lfingers 7.12502
lthumb -9.43898 38.1581
rfemur -11.3452 -11.3325 21.9961
rtibia 40.3434
rfoot -33.296 2.97022
rtoes -8.5039
lfemur 0.449712 5.4788 0.184633
ltibia 48.1951
lfoot -17.1848 -24.1383
ltoes -18.1415
21
root 3.27001 15.7928 -38.0087 2.37467 -9.40856 -7.27321
lowerback 10.5565 -0.273903 4.60152
upperback 2.74049 0.159201 1.15637
thorax -3.04861 0.0526912 -1.40859
lowerneck -18.5572 -1.92319 -8.498
upperneck 28.0553 -2.42507 7.71195
head 12.5957 -0.985587 4.03371
rclavicle -7.35503e-015 -6.75868e-015
rhumerus -33.82 16.3872 -94.0021
rradius 45.0797
rwrist 27.1657
rhand -31.2295 -17.9668
rfingers 7.12502
rthumb -4.50475 -47.8989
lclavicle -7.35503e-015 -6.75868e-015
lhumerus -34.111 -28.4598 100.134
lradius 22.023
lwrist -17.2328
lhand -36.5749 8.01504
lfingers 7.12502
lthumb -9.66455 37.7733
rfemur -11.8895 -11.1279 22.0524
rtibia 40.9437
rfoot -33.8214 2.41937
rtoes -9.25521
lfemur 1.41827 5.00325 -0.215928
ltibia 46.5009
lfoot -17.8629 -23.1497
ltoes -23.1505
22
root 3.28134 15.7679 -38.0109 2.6505 -9.631 -7.29512
lowerback 10.7098 -0.43134 4.17462
upperback 2.92736 -0.0940767 1.14635
thorax -2.95326 -0.0672915 -1.14651
lowerneck -18.6589 -1.74386 -8.3377
upperneck 27.8664 -2.13865 7.50713
head 12.5065 -0.865019 3.96429
rclavicle 3.57812e-015 9.14409e-015
rhumerus -33.9471 15.8573 -93.713
rradius 45.1105
rwrist 27.2592
rhand -31.4895 -17.3388
rfingers 7.12502
rthumb -4.75584 -47.2654
lclavicle 3.57812e-015 9.14409e-015
lhumerus -33.8584 -28.6326 99.965
lradius 21.9856
lwrist -16.9375
lhand -36.4896 8.09679
lfingers 7.12502
lthumb -9.58223 37.8589
rfemur -12.5302 -11.0796 22.08
rtibia 41.5936
rfoot -34.2533 2.1286
rtoes -10.0912
lfemur 2.5228 4.25949 -0.775986
ltibia 44.4975
lfoot -19.1045 -21.8254
ltoes -24.0383
